<svg width="29" height="27" viewBox="0 0 29 27" fill="none" xmlns="http://www.w3.org/2000/svg">
<path d="M28.5733 5.9911C28.3146 5.54276 27.944 5.16914 27.4978 4.90667C27.0517 4.64421 26.5451 4.50188 26.0275 4.49354H6.8588L5.99022 1.10907C5.90246 0.782359 5.70667 0.494987 5.43474 0.293758C5.16281 0.0925283 4.83075 -0.0107027 4.49266 0.000878286H1.49755C1.10038 0.000878286 0.719469 0.158656 0.438623 0.439502C0.157778 0.720348 0 1.10126 0 1.49843C0 1.89561 0.157778 2.27652 0.438623 2.55736C0.719469 2.83821 1.10038 2.99599 1.49755 2.99599H3.35452L7.48777 18.3609C7.57553 18.6876 7.77132 18.975 8.04325 19.1762C8.31518 19.3774 8.64723 19.4807 8.98532 19.4691H22.4633C22.7399 19.4682 23.0108 19.3908 23.246 19.2455C23.4813 19.1001 23.6717 18.8924 23.7961 18.6454L28.7081 8.82147C28.921 8.37522 29.0201 7.88321 28.9966 7.38934C28.9731 6.89546 28.8277 6.41509 28.5733 5.9911Z" fill="white"/>
<path d="M8.2366 26.9568C9.47722 26.9568 10.4829 25.9511 10.4829 24.7105C10.4829 23.4699 9.47722 22.4642 8.2366 22.4642C6.99599 22.4642 5.99027 23.4699 5.99027 24.7105C5.99027 25.9511 6.99599 26.9568 8.2366 26.9568Z" fill="white"/>
<path d="M23.212 26.9568C24.4526 26.9568 25.4583 25.9511 25.4583 24.7105C25.4583 23.4699 24.4526 22.4642 23.212 22.4642C21.9714 22.4642 20.9657 23.4699 20.9657 24.7105C20.9657 25.9511 21.9714 26.9568 23.212 26.9568Z" fill="white"/>
</svg>
