<svg width="35" height="35" viewBox="0 0 35 35" fill="none" xmlns="http://www.w3.org/2000/svg">
<g clip-path="url(#clip0_0_190)">
<path fill-rule="evenodd" clip-rule="evenodd" d="M0 3.5C0 2.57174 0.368749 1.6815 1.02513 1.02513C1.6815 0.368749 2.57174 0 3.5 0L31.5 0C32.4283 0 33.3185 0.368749 33.9749 1.02513C34.6313 1.6815 35 2.57174 35 3.5V12.8333L33.1333 11.431C31.1113 9.91449 28.6101 9.17824 26.089 9.35742C23.5678 9.53659 21.1959 10.6192 19.4087 12.4064C17.6215 14.1936 16.5389 16.5655 16.3597 19.0867C16.1806 21.6078 16.9168 24.109 18.4333 26.131L18.6667 26.4437V35H3.5C2.57174 35 1.6815 34.6313 1.02513 33.9749C0.368749 33.3185 0 32.4283 0 31.5L0 3.5ZM18.6667 11.6667H7V9.33333H18.6667V11.6667ZM7 18.6667H14V16.3333H7V18.6667Z" fill="#2161DF"/>
<path fill-rule="evenodd" clip-rule="evenodd" d="M26.8333 11.6666C25.2249 11.6664 23.6523 12.1411 22.3127 13.0312C20.9731 13.9212 19.9261 15.187 19.3031 16.6698C18.68 18.1526 18.5087 19.7863 18.8106 21.3661C19.1125 22.9459 19.8741 24.4014 21 25.55V33.8333C21 34.05 21.0603 34.2623 21.1742 34.4466C21.2881 34.631 21.4511 34.7799 21.6449 34.8768C21.8387 34.9737 22.0556 35.0147 22.2714 34.9952C22.4872 34.9758 22.6933 34.8966 22.8666 34.7666L26.8333 31.7916L30.8 34.7666C30.9733 34.8966 31.1794 34.9758 31.3952 34.9952C31.611 35.0147 31.8279 34.9737 32.0217 34.8768C32.2155 34.7799 32.3785 34.631 32.4924 34.4466C32.6063 34.2623 32.6666 34.05 32.6666 33.8333V25.55C33.7925 24.4014 34.5541 22.9459 34.856 21.3661C35.1579 19.7863 34.9866 18.1526 34.3635 16.6698C33.7405 15.187 32.6935 13.9212 31.3539 13.0312C30.0143 12.1411 28.4417 11.6664 26.8333 11.6666V11.6666ZM23.3333 31.5V27.2136C24.395 27.7176 25.5803 28 26.8333 28C28.0863 28 29.2716 27.72 30.3333 27.2136V31.5L27.5333 29.4C27.3314 29.2485 27.0857 29.1666 26.8333 29.1666C26.5809 29.1666 26.3352 29.2485 26.1333 29.4L23.3333 31.5V31.5Z" fill="#2161DF"/>
</g>
<defs>
<clipPath id="clip0_0_190">
<rect width="35" height="35" fill="white"/>
</clipPath>
</defs>
</svg>
