<svg width="171" height="171" viewBox="0 0 171 171" fill="none" xmlns="http://www.w3.org/2000/svg">
<g filter="url(#filter0_d_0_1)">
<circle cx="85.5" cy="73.5" r="69.5" fill="url(#paint0_linear_0_1)"/>
</g>
<path d="M66.7267 93.872C65.6693 93.8735 64.6484 93.486 63.8583 92.7834L42 73.3528L65.0722 52.8423C65.9322 52.1066 67.0465 51.7378 68.1756 51.8151C69.3047 51.8925 70.3583 52.4099 71.11 53.256C71.8616 54.1021 72.2511 55.2094 72.1948 56.3397C72.1385 57.4701 71.6409 58.5332 70.8089 59.3004L55.0027 73.3528L69.595 86.3209C70.2506 86.9026 70.7138 87.67 70.923 88.5211C71.1321 89.3722 71.0775 90.2668 70.7663 91.0861C70.455 91.9055 69.9019 92.6107 69.1804 93.1083C68.4589 93.6059 67.6031 93.8722 66.7267 93.872ZM105.368 93.8633L128.44 73.3528L106.581 53.9222C105.725 53.1615 104.601 52.7721 103.458 52.8398C102.314 52.9074 101.245 53.4265 100.484 54.2829C99.7232 55.1394 99.3338 56.2629 99.4015 57.4064C99.4691 58.5499 99.9882 59.6196 100.845 60.3804L115.437 73.3528L99.6308 87.4009C98.7738 88.1616 98.2541 89.2316 98.1861 90.3755C98.118 91.5194 98.5072 92.6435 99.2679 93.5005C100.029 94.3574 101.099 94.8771 102.243 94.9452C103.386 95.0132 104.511 94.6241 105.368 93.8633ZM85.1594 99.9845L93.799 48.1466C93.9095 47.5801 93.9053 46.9972 93.7867 46.4323C93.6681 45.8674 93.4375 45.332 93.1086 44.8577C92.7796 44.3835 92.3589 43.9799 91.8713 43.671C91.3838 43.362 90.8393 43.1539 90.2699 43.0589C89.7006 42.9639 89.118 42.984 88.5566 43.1179C87.9951 43.2519 87.4662 43.497 87.0011 43.8388C86.536 44.1806 86.144 44.6121 85.8485 45.1079C85.5529 45.6037 85.3597 46.1537 85.2803 46.7254L76.6407 98.5633C76.5302 99.1298 76.5344 99.7128 76.653 100.278C76.7716 100.843 77.0022 101.378 77.3311 101.852C77.6601 102.326 78.0808 102.73 78.5684 103.039C79.0559 103.348 79.6004 103.556 80.1698 103.651C80.7391 103.746 81.3217 103.726 81.8831 103.592C82.4446 103.458 82.9735 103.213 83.4386 102.871C83.9037 102.529 84.2957 102.098 84.5912 101.602C84.8868 101.106 85.0799 100.556 85.1594 99.9845Z" fill="white"/>
<defs>
<filter id="filter0_d_0_1" x="0" y="0" width="171" height="171" filterUnits="userSpaceOnUse" color-interpolation-filters="sRGB">
<feFlood flood-opacity="0" result="BackgroundImageFix"/>
<feColorMatrix in="SourceAlpha" type="matrix" values="0 0 0 0 0 0 0 0 0 0 0 0 0 0 0 0 0 0 127 0" result="hardAlpha"/>
<feOffset dy="12"/>
<feGaussianBlur stdDeviation="8"/>
<feComposite in2="hardAlpha" operator="out"/>
<feColorMatrix type="matrix" values="0 0 0 0 0 0 0 0 0 0.175438 0 0 0 0 1 0 0 0 0.2 0"/>
<feBlend mode="normal" in2="BackgroundImageFix" result="effect1_dropShadow_0_1"/>
<feBlend mode="normal" in="SourceGraphic" in2="effect1_dropShadow_0_1" result="shape"/>
</filter>
<linearGradient id="paint0_linear_0_1" x1="85.5" y1="4" x2="85.5" y2="143" gradientUnits="userSpaceOnUse">
<stop stop-color="#95A7FF"/>
<stop offset="1" stop-color="#4361EE"/>
</linearGradient>
</defs>
</svg>
