<svg width="61" height="43" viewBox="0 0 61 43" fill="none" xmlns="http://www.w3.org/2000/svg">
<path d="M17.4495 36.0319C16.7033 36.033 15.9828 35.7585 15.4253 35.2609L0 21.4985L16.2819 6.97115C16.8888 6.45007 17.6752 6.18884 18.472 6.24364C19.2688 6.29843 20.0123 6.66488 20.5427 7.26417C21.0731 7.86347 21.348 8.64775 21.3083 9.44835C21.2686 10.2489 20.9174 11.0019 20.3303 11.5454L9.17591 21.4985L19.4737 30.6836C19.9363 31.0956 20.2631 31.6391 20.4108 32.2419C20.5584 32.8448 20.5198 33.4784 20.3002 34.0587C20.0806 34.6391 19.6902 35.1386 19.1811 35.491C18.6719 35.8434 18.068 36.0321 17.4495 36.0319ZM44.7181 36.0258L61 21.4985L45.5747 7.73607C44.9704 7.19725 44.1775 6.92146 43.3705 6.96937C42.5636 7.01729 41.8086 7.38497 41.2718 7.99155C40.7349 8.59813 40.4602 9.39391 40.5079 10.2038C40.5556 11.0137 40.922 11.7715 41.5263 12.3103L51.8241 21.4985L40.6697 31.4485C40.065 31.9873 39.6982 32.7452 39.6502 33.5554C39.6022 34.3656 39.8768 35.1618 40.4136 35.7688C40.9505 36.3758 41.7056 36.7438 42.5128 36.792C43.3201 36.8402 44.1133 36.5646 44.7181 36.0258ZM30.4573 40.3613L36.5543 3.64529C36.6322 3.24402 36.6293 2.83115 36.5456 2.43104C36.4619 2.03094 36.2992 1.65173 36.067 1.3158C35.8349 0.979883 35.538 0.694064 35.1939 0.475231C34.8499 0.256398 34.4656 0.10899 34.0638 0.041713C33.662 -0.0255637 33.2509 -0.0113444 32.8547 0.0835313C32.4585 0.178407 32.0852 0.352015 31.757 0.5941C31.4288 0.836185 31.1522 1.14184 30.9436 1.493C30.7351 1.84417 30.5987 2.23372 30.5427 2.63866L24.4457 39.3547C24.3678 39.756 24.3707 40.1689 24.4544 40.569C24.5381 40.9691 24.7008 41.3483 24.933 41.6842C25.1651 42.0201 25.462 42.3059 25.8061 42.5248C26.1501 42.7436 26.5344 42.891 26.9362 42.9583C27.338 43.0256 27.7491 43.0113 28.1453 42.9165C28.5415 42.8216 28.9148 42.648 29.243 42.4059C29.5712 42.1638 29.8478 41.8582 30.0564 41.507C30.2649 41.1558 30.4013 40.7663 30.4573 40.3613Z" fill="#061D4D"/>
</svg>
