<svg width="60" height="81" viewBox="0 0 60 81" fill="none" xmlns="http://www.w3.org/2000/svg">
<path d="M10.425 5.33337H7.5C5.51088 5.33337 3.60322 6.12355 2.1967 7.53007C0.790177 8.9366 0 10.8443 0 12.8334V72.8334C0 74.8225 0.790177 76.7302 2.1967 78.1367C3.60322 79.5432 5.51088 80.3334 7.5 80.3334H52.5C54.4891 80.3334 56.3968 79.5432 57.8033 78.1367C59.2098 76.7302 60 74.8225 60 72.8334V12.8334C60 10.8443 59.2098 8.9366 57.8033 7.53007C56.3968 6.12355 54.4891 5.33337 52.5 5.33337H49.575C49.85 6.11337 50 6.95837 50 7.83337V10.3334C50 12.3225 49.2098 14.2302 47.8033 15.6367C46.3968 17.0432 44.4891 17.8334 42.5 17.8334H17.5C15.5109 17.8334 13.6032 17.0432 12.1967 15.6367C10.7902 14.2302 10 12.3225 10 10.3334V7.83337C10 6.95837 10.15 6.11337 10.425 5.33337ZM40 35.3334C40 34.0073 40.5268 32.7355 41.4645 31.7978C42.4021 30.8602 43.6739 30.3334 45 30.3334C46.3261 30.3334 47.5979 30.8602 48.5355 31.7978C49.4732 32.7355 50 34.0073 50 35.3334V60.3334C50 61.6595 49.4732 62.9312 48.5355 63.8689C47.5979 64.8066 46.3261 65.3334 45 65.3334C43.6739 65.3334 42.4021 64.8066 41.4645 63.8689C40.5268 62.9312 40 61.6595 40 60.3334V35.3334ZM10 55.3334C10 54.0073 10.5268 52.7355 11.4645 51.7978C12.4021 50.8602 13.6739 50.3334 15 50.3334C16.3261 50.3334 17.5979 50.8602 18.5355 51.7978C19.4732 52.7355 20 54.0073 20 55.3334V60.3334C20 61.6595 19.4732 62.9312 18.5355 63.8689C17.5979 64.8066 16.3261 65.3334 15 65.3334C13.6739 65.3334 12.4021 64.8066 11.4645 63.8689C10.5268 62.9312 10 61.6595 10 60.3334V55.3334ZM30 40.3334C31.3261 40.3334 32.5979 40.8602 33.5355 41.7978C34.4732 42.7355 35 44.0073 35 45.3334V60.3334C35 61.6595 34.4732 62.9312 33.5355 63.8689C32.5979 64.8066 31.3261 65.3334 30 65.3334C28.6739 65.3334 27.4021 64.8066 26.4645 63.8689C25.5268 62.9312 25 61.6595 25 60.3334V45.3334C25 44.0073 25.5268 42.7355 26.4645 41.7978C27.4021 40.8602 28.6739 40.3334 30 40.3334Z" fill="#061D4D"/>
</svg>
