<svg width="171" height="171" viewBox="0 0 171 171" fill="none" xmlns="http://www.w3.org/2000/svg">
<g filter="url(#filter0_d_0_1)">
<circle cx="85.5" cy="73.5" r="69.5" fill="url(#paint0_linear_0_1)"/>
</g>
<path d="M96 35.8334C96 35.1703 95.7366 34.5344 95.2678 34.0656C94.7989 33.5968 94.163 33.3334 93.5 33.3334H78.5C77.837 33.3334 77.2011 33.5968 76.7322 34.0656C76.2634 34.5344 76 35.1703 76 35.8334C76 36.4964 75.7366 37.1323 75.2678 37.6011C74.7989 38.07 74.163 38.3334 73.5 38.3334C72.837 38.3334 72.2011 38.5968 71.7322 39.0656C71.2634 39.5344 71 40.1703 71 40.8334V43.3334C71 43.9964 71.2634 44.6323 71.7322 45.1011C72.2011 45.57 72.837 45.8334 73.5 45.8334H98.5C99.163 45.8334 99.7989 45.57 100.268 45.1011C100.737 44.6323 101 43.9964 101 43.3334V40.8334C101 40.1703 100.737 39.5344 100.268 39.0656C99.7989 38.5968 99.163 38.3334 98.5 38.3334C97.837 38.3334 97.2011 38.07 96.7322 37.6011C96.2634 37.1323 96 36.4964 96 35.8334Z" fill="white"/>
<path d="M66.425 38.3334H63.5C61.5109 38.3334 59.6032 39.1236 58.1967 40.5301C56.7902 41.9366 56 43.8443 56 45.8334V105.833C56 107.822 56.7902 109.73 58.1967 111.137C59.6032 112.543 61.5109 113.333 63.5 113.333H108.5C110.489 113.333 112.397 112.543 113.803 111.137C115.21 109.73 116 107.822 116 105.833V45.8334C116 43.8443 115.21 41.9366 113.803 40.5301C112.397 39.1236 110.489 38.3334 108.5 38.3334H105.575C105.85 39.1134 106 39.9584 106 40.8334V43.3334C106 45.3225 105.21 47.2302 103.803 48.6367C102.397 50.0432 100.489 50.8334 98.5 50.8334H73.5C71.5109 50.8334 69.6032 50.0432 68.1967 48.6367C66.7902 47.2302 66 45.3225 66 43.3334V40.8334C66 39.9584 66.15 39.1134 66.425 38.3334ZM96 68.3334C96 67.0073 96.5268 65.7355 97.4645 64.7978C98.4021 63.8602 99.6739 63.3334 101 63.3334C102.326 63.3334 103.598 63.8602 104.536 64.7978C105.473 65.7355 106 67.0073 106 68.3334V93.3334C106 94.6595 105.473 95.9312 104.536 96.8689C103.598 97.8066 102.326 98.3334 101 98.3334C99.6739 98.3334 98.4021 97.8066 97.4645 96.8689C96.5268 95.9312 96 94.6595 96 93.3334V68.3334ZM66 88.3334C66 87.0073 66.5268 85.7355 67.4645 84.7978C68.4021 83.8602 69.6739 83.3334 71 83.3334C72.3261 83.3334 73.5979 83.8602 74.5355 84.7978C75.4732 85.7355 76 87.0073 76 88.3334V93.3334C76 94.6595 75.4732 95.9312 74.5355 96.8689C73.5979 97.8066 72.3261 98.3334 71 98.3334C69.6739 98.3334 68.4021 97.8066 67.4645 96.8689C66.5268 95.9312 66 94.6595 66 93.3334V88.3334ZM86 73.3334C87.3261 73.3334 88.5979 73.8602 89.5355 74.7978C90.4732 75.7355 91 77.0073 91 78.3334V93.3334C91 94.6595 90.4732 95.9312 89.5355 96.8689C88.5979 97.8066 87.3261 98.3334 86 98.3334C84.6739 98.3334 83.4021 97.8066 82.4645 96.8689C81.5268 95.9312 81 94.6595 81 93.3334V78.3334C81 77.0073 81.5268 75.7355 82.4645 74.7978C83.4021 73.8602 84.6739 73.3334 86 73.3334Z" fill="white"/>
<defs>
<filter id="filter0_d_0_1" x="0" y="0" width="171" height="171" filterUnits="userSpaceOnUse" color-interpolation-filters="sRGB">
<feFlood flood-opacity="0" result="BackgroundImageFix"/>
<feColorMatrix in="SourceAlpha" type="matrix" values="0 0 0 0 0 0 0 0 0 0 0 0 0 0 0 0 0 0 127 0" result="hardAlpha"/>
<feOffset dy="12"/>
<feGaussianBlur stdDeviation="8"/>
<feComposite in2="hardAlpha" operator="out"/>
<feColorMatrix type="matrix" values="0 0 0 0 1 0 0 0 0 0.267327 0 0 0 0 0 0 0 0 0.2 0"/>
<feBlend mode="normal" in2="BackgroundImageFix" result="effect1_dropShadow_0_1"/>
<feBlend mode="normal" in="SourceGraphic" in2="effect1_dropShadow_0_1" result="shape"/>
</filter>
<linearGradient id="paint0_linear_0_1" x1="85.5" y1="4" x2="85.5" y2="143" gradientUnits="userSpaceOnUse">
<stop stop-color="#F0AA91"/>
<stop offset="1" stop-color="#F25E27"/>
</linearGradient>
</defs>
</svg>
