<svg width="48" height="48" viewBox="0 0 48 48" fill="none" xmlns="http://www.w3.org/2000/svg">
<path d="M35.3019 22.6873L39.488 18.5012L29.4893 8.50256L25.3032 12.6887L14.2647 1.67682C12.185 -0.402902 8.79881 -0.402902 6.71909 1.67682L1.65311 6.74279C-0.426609 8.82251 -0.426609 12.2087 1.65311 14.2884L12.6649 25.3003L0 37.9919V47.9905H9.99864L22.6903 35.2989L33.7021 46.3108C36.2351 48.8437 39.648 47.9105 41.2477 46.3108L46.3137 41.2448C48.3934 39.1651 48.3934 35.7789 46.3137 33.6991L35.3019 22.6873V22.6873ZM16.4778 21.5141L5.43926 10.5023L10.4786 5.4363L13.8648 8.82251L10.7185 11.9954L14.478 15.7549L17.6509 12.582L21.5171 16.4481L16.4778 21.5141V21.5141ZM37.4882 42.5513L26.4764 31.5394L31.5424 26.4734L35.4085 30.3396L32.2356 33.5125L35.9951 37.272L39.168 34.0991L42.5542 37.4853L37.4882 42.5513V42.5513ZM47.2203 10.7689C47.4674 10.5222 47.6635 10.2292 47.7973 9.9067C47.9311 9.58414 48 9.23837 48 8.88917C48 8.53997 47.9311 8.19419 47.7973 7.87164C47.6635 7.54909 47.4674 7.25609 47.2203 7.00942L40.9811 0.770272C39.7279 -0.482891 37.9948 -0.00295655 37.2216 0.770272L32.3423 5.64961L42.3409 15.6483L47.2203 10.7689V10.7689Z" fill="#061D4D"/>
</svg>
