<svg width="467" height="187" viewBox="0 0 467 187" fill="none" xmlns="http://www.w3.org/2000/svg">
<path fill-rule="evenodd" clip-rule="evenodd" d="M341.256 53.7496C363.033 56.7345 379.921 62.6497 396.753 69.0385C451.953 90.0095 468.359 114.316 426.801 131.343C362.187 157.729 218.375 162.928 110.093 139.764C86.1104 134.646 53.5168 128.772 30.7536 114.991C9.578 102.176 11.9457 90.2165 23.533 80.2611C35.3404 70.0451 56.7386 61.8947 73.5854 57.0231C147.234 35.7861 290.881 25.6044 416.219 54.8763C418.797 55.4598 421.465 55.3008 422.312 54.5373C423.16 53.7738 421.962 52.7046 419.569 52.1433C290.551 22.0147 142.358 32.2414 66.5554 54.0965C45.5926 60.1762 17.8034 71.1816 8.60693 84.8933C2.38458 94.2725 4.71517 104.893 23.0587 116.072C47.2294 130.743 81.8386 137.168 107.296 142.609C219.082 166.527 367.819 161.262 434.429 133.996C479.164 115.703 461.84 89.592 402.476 67.0472C384.382 60.1356 365.838 53.817 342.2 50.5779C339.594 50.2214 337.275 50.6435 337.169 51.5372C336.876 52.4087 338.837 53.4153 341.256 53.7496Z" fill="#2161DF"/>
</svg>
