<svg width="43" height="34" viewBox="0 0 43 34" fill="none" xmlns="http://www.w3.org/2000/svg">
<path d="M21.7434 21.25C25.5557 21.25 28.5898 18.1581 28.5898 14.3438C28.5898 10.5294 25.4993 7.4375 21.7434 7.4375C17.931 7.4375 14.8969 10.5294 14.8969 14.3438C14.8371 18.1555 17.9316 21.25 21.7434 21.25ZM25.0637 23.375H18.4363C13.2234 23.375 9 27.3395 9 32.227C9 33.2098 9.84336 34 10.8859 34H32.6141C33.6566 34 34.5 33.2098 34.5 32.227C34.5 27.3395 30.2766 23.375 25.0637 23.375ZM34.5 10.625C37.4338 10.625 39.8125 8.24633 39.8125 5.3125C39.8125 2.37867 37.4352 0 34.5 0C31.5662 0 29.1875 2.37867 29.1875 5.3125C29.1875 8.24633 31.5648 10.625 34.5 10.625ZM12.7121 14.3438C12.7121 13.9819 12.7773 13.6379 12.819 13.2872C12.0945 12.8895 11.2977 12.75 10.4543 12.75H6.34906C3.11906 12.75 0.5 15.5258 0.5 18.9457C0.5 19.6297 1.02375 20.1875 1.67008 20.1875H14.9181C13.5621 18.607 12.7121 16.5816 12.7121 14.3438ZM9 10.625C11.9338 10.625 14.3125 8.24633 14.3125 5.3125C14.3125 2.37867 11.9352 0 9 0C6.06617 0 3.6875 2.37867 3.6875 5.3125C3.6875 8.24633 6.06617 10.625 9 10.625ZM37.1496 12.75H33.043C32.193 12.75 31.3909 12.9517 30.6617 13.2972C30.7016 13.6465 30.768 13.9852 30.768 14.3438C30.768 16.5823 29.9193 18.6077 28.5659 20.1875H41.8273C42.4754 20.1875 43 19.6297 43 18.9457C43 15.5258 40.3836 12.75 37.1496 12.75Z" fill="#2161DF"/>
</svg>
