<svg width="35" height="35" viewBox="0 0 35 35" fill="none" xmlns="http://www.w3.org/2000/svg">
<path d="M17.5 0C7.83594 0 0 7.83594 0 17.5C0 27.1641 7.83594 35 17.5 35C27.1641 35 35 27.1641 35 17.5C35 7.83594 27.1641 0 17.5 0ZM23.1289 17.7695L14.5977 23.9766C14.5509 24.0102 14.4958 24.0302 14.4383 24.0346C14.3809 24.0389 14.3234 24.0273 14.2721 24.001C14.2208 23.9748 14.1778 23.9349 14.1477 23.8858C14.1176 23.8367 14.1017 23.7803 14.1016 23.7227V11.3164C14.1014 11.2587 14.1172 11.2021 14.1472 11.1528C14.1772 11.1035 14.2203 11.0635 14.2717 11.0372C14.3231 11.0109 14.3807 10.9994 14.4382 11.0038C14.4958 11.0083 14.551 11.0286 14.5977 11.0625L23.1289 17.2656C23.1692 17.2941 23.2021 17.3319 23.2248 17.3757C23.2475 17.4196 23.2593 17.4682 23.2593 17.5176C23.2593 17.5669 23.2475 17.6156 23.2248 17.6594C23.2021 17.7033 23.1692 17.741 23.1289 17.7695Z" fill="#2161DF"/>
</svg>
