<svg width="41" height="41" viewBox="0 0 41 41" fill="none" xmlns="http://www.w3.org/2000/svg">
<path d="M17.5335 35.0652C21.4237 35.0644 25.2018 33.7622 28.2663 31.3658L37.9009 41L41 37.9011L31.3653 28.2669C33.763 25.2024 35.0662 21.4236 35.0671 17.5326C35.0671 7.86557 27.2011 0 17.5335 0C7.86599 0 0 7.86557 0 17.5326C0 27.1996 7.86599 35.0652 17.5335 35.0652ZM17.5335 4.38315C24.7859 4.38315 30.6837 10.2807 30.6837 17.5326C30.6837 24.7845 24.7859 30.6821 17.5335 30.6821C10.2812 30.6821 4.38339 24.7845 4.38339 17.5326C4.38339 10.2807 10.2812 4.38315 17.5335 4.38315Z" fill="white"/>
<path d="M20.4434 14.0349C21.2023 14.8541 21.6207 15.9364 21.6207 17.0833H25.625C25.6268 15.9502 25.42 14.828 25.0165 13.7815C24.613 12.735 24.021 11.785 23.2745 10.9864C20.2432 7.7267 14.9876 7.7267 11.9583 10.9864L14.7854 14.0392C16.307 12.405 18.9298 12.4093 20.4434 14.0349Z" fill="white"/>
</svg>
