<svg width="42" height="48" viewBox="0 0 42 48" fill="none" xmlns="http://www.w3.org/2000/svg">
<path d="M12.216 1.68C15.471 0.795 18.93 0 21 0C23.07 0 26.529 0.795 29.784 1.68C33.114 2.58 36.471 3.645 38.445 4.29C39.2703 4.56255 40.002 5.0624 40.556 5.7321C41.1101 6.40181 41.4639 7.21422 41.577 8.076C43.365 21.507 39.216 31.461 34.182 38.046C32.0473 40.8629 29.502 43.3436 26.631 45.405C25.6383 46.1183 24.5865 46.7456 23.487 47.28C22.647 47.676 21.744 48 21 48C20.256 48 19.356 47.676 18.513 47.28C17.4135 46.7456 16.3617 46.1184 15.369 45.405C12.4981 43.3435 9.95275 40.8629 7.81801 38.046C2.78401 31.461 -1.36498 21.507 0.423016 8.076C0.536078 7.21422 0.889945 6.40181 1.44397 5.7321C1.99799 5.0624 2.72969 4.56255 3.55501 4.29C6.42059 3.35043 9.30843 2.48017 12.216 1.68Z" fill="#2161DF"/>
</svg>
