<svg width="43" height="35" viewBox="0 0 43 35" fill="none" xmlns="http://www.w3.org/2000/svg">
<path d="M21.4933 21.5C25.3505 21.5 28.4203 18.3717 28.4203 14.5125C28.4203 10.6533 25.2934 7.525 21.4933 7.525C17.636 7.525 14.5663 10.6533 14.5663 14.5125C14.5058 18.3691 17.6367 21.5 21.4933 21.5ZM24.8527 23.65H18.1473C12.8731 23.65 8.6 27.6611 8.6 32.6061C8.6 33.6005 9.45328 34.4 10.5081 34.4H32.4919C33.5467 34.4 34.4 33.6005 34.4 32.6061C34.4 27.6611 30.1269 23.65 24.8527 23.65ZM34.4 10.75C37.3683 10.75 39.775 8.34334 39.775 5.375C39.775 2.40666 37.3697 0 34.4 0C31.4317 0 29.025 2.40666 29.025 5.375C29.025 8.34334 31.4303 10.75 34.4 10.75ZM12.3558 14.5125C12.3558 14.1464 12.4218 13.7983 12.4639 13.4435C11.7309 13.0411 10.9247 12.9 10.0714 12.9H5.91788C2.64988 12.9 0 15.7084 0 19.1686C0 19.8606 0.529908 20.425 1.18384 20.425H14.5878C13.2158 18.8259 12.3558 16.7767 12.3558 14.5125ZM8.6 10.75C11.5683 10.75 13.975 8.34334 13.975 5.375C13.975 2.40666 11.5697 0 8.6 0C5.63166 0 3.225 2.40666 3.225 5.375C3.225 8.34334 5.63166 10.75 8.6 10.75ZM37.0808 12.9H32.9259C32.0659 12.9 31.2543 13.104 30.5166 13.4536C30.5569 13.807 30.6241 14.1497 30.6241 14.5125C30.6241 16.7774 29.7654 18.8266 28.3961 20.425H41.8135C42.4692 20.425 43 19.8606 43 19.1686C43 15.7084 40.3528 12.9 37.0808 12.9Z" fill="#2161DF"/>
</svg>
